<?xml version="1.0" encoding="utf-8"?>
<svg id="master-artboard" viewBox="29.989 121.718 1086.371 1327.586" version="1.1" x="0px" y="0px" style="enable-background:new 0 0 1134 1474;" width="1134px" height="1474px" xmlns="http://www.w3.org/2000/svg">
  <path class="st0" d="M1072.4,661.4c-0.7,15.7-5.5,28.2-14.4,37.3l-458.4,458.6c-12.2,12.2-25.1,18.4-38.6,18.4 c-15.1,0-28.6-6.2-40.8-18.4L59.5,696.7c-8.9-12.6-13.3-25.5-13.3-38.8c0-15.5,5.8-29,17.3-40.8l456.1-455.9 c11.5-11.8,23.9-17.5,37-17.5c12.2,0,26.8,5.8,44.1,17.3l456.1,456.1C1067.5,631.7,1072.6,646.5,1072.4,661.4L1072.4,661.4z M1027.6,656.7c0-14.2-7.1-26.6-21.3-37.3L596.1,211.7c-10.2-13.1-22.8-19.5-38.1-19.5c-14.2,0-27.3,7.1-38.8,21.3L117.6,613.3 c-17.5,17.5-26.2,32.6-26.2,45.7c0,13.1,6,25.7,17.7,37.7l410,410c13.7,13.5,27.3,20.4,40.8,20.4c11.3,0,23.5-6.9,37.3-20.6 l409.1-408.9C1020.5,686,1027.6,672.5,1027.6,656.7L1027.6,656.7z M604.8,426.8c0,30.2-15.3,45.2-45.7,45.2 c-29,0-43.7-15.1-43.7-45.2c0-29.7,14.6-44.6,43.7-44.6c12,0,22.6,4.4,31.7,13.3C600.1,404.6,604.8,415,604.8,426.8L604.8,426.8z M776.4,834.1H482.6c5.5-10.9,14.9-17.7,27.7-20.4c7.1-1.6,13.3-2.9,18.8-4c0-15.7,9.8-24.8,28.8-26.8c1.8-13.1,10.2-22,25.3-26.2 L471,665.4l-2.9,5.8c11.5,13.1,17.3,22.8,17.3,29.5c0,12.9-19.5,52.8-59,120.2c-5.3,8.9-12.9,13.3-22.4,13.3 c-14.2,0-21.3-7.1-21.3-21.3c0-11.1,16.4-47,49.2-107.8l-58.1-71.6l2,52.1c0.7,16.6-6.2,49-20.8,97.3c-5.8,18.6-9.5,31.3-12,37.9 c-4,8.9-10.9,13.3-20.4,13.3c-15.5,0-23.3-8.2-23.3-24.4l23.3-100.7V601.3c0-4.4,8-13.5,23.7-27.9c-2.9-1.6-10-8.2-21.1-20 c-11.1-11.8-16.6-18.6-16.6-20.6c0-4.7,2.4-7.1,7.1-7.1c1.6,0,6,2.9,12.9,8.6l6.4,4.9c3.5-28.8,9.1-51.7,16.4-68.5 c4.9-11.3,11.1-16.9,18.4-16.9h102.7c8.6,0,21.3,13.1,37.7,39.2c16.6,25.9,24.8,42.4,24.8,49c0,16.9-19.1,54.1-57.2,111.5l121.7,98 c9.1-16.9,21.7-25.3,38.4-25.3c8.2,0,17.1,3.3,26.4,10.2c9.5,6.7,15.3,14.2,17.3,22c4.2-1.8,7.8-2.9,10.4-2.9 c8,0,14.6,4.2,20.6,12.6c5.8,8.4,8.6,16.9,8.6,25.1c7.3,0,12.2,2.7,14.9,7.5l3.5,6.4C760.2,807.3,772.4,816.2,776.4,834.1 L776.4,834.1z M418.5,499.5H385c-5.1,15.5-8,29.7-9.1,42.6L418.5,499.5L418.5,499.5z M469,580c-13.5,5.1-31.7,13.3-54.5,24.2 l29.3,22.4L469,580z" style="fill: rgb(241, 114, 8);" transform="matrix(1, 0, 0, 1, 0, 0)"/>
  <path d="M 153.60000610351562 1241.699951171875 L 153.60000610351562 1426.699951171875 L 111.4000015258789 1426.699951171875 L 86.30000305175781 1342.5999755859375 L 86.30000305175781 1426.699951171875 L 46.099998474121094 1426.699951171875 L 46.099998474121094 1241.699951171875 L 86.30000305175781 1241.699951171875 L 113.30000305175781 1325 L 113.30000305175781 1241.699951171875 Z" class="st0" style="fill: rgb(241, 114, 8);" transform="matrix(1, 0, 0, 1, 0, 0)"/>
  <path class="st0" d="M276.1,1353.6h-59.8v32.8c0,6.9,0.5,11.3,1.5,13.3c1,2,2.9,3,5.7,3c3.5,0,5.9-1.3,7-3.9 c1.2-2.7,1.8-7.7,1.8-15.3v-20h43.8v11.2c0,9.4-0.6,16.6-1.8,21.6c-1.2,5-3.9,10.4-8.3,16.1c-4.4,5.7-9.9,10-16.5,12.8 c-6.6,2.9-15,4.3-25.1,4.3c-9.8,0-18.3-1.4-25.8-4.2c-7.5-2.8-13.3-6.7-17.4-11.6c-4.2-4.9-7.1-10.3-8.7-16.2 c-1.6-5.9-2.4-14.5-2.4-25.8v-44.2c0-13.3,1.8-23.7,5.3-31.4c3.6-7.6,9.5-13.5,17.6-17.6c8.2-4.1,17.5-6.1,28.1-6.1 c13,0,23.6,2.5,32.1,7.4c8.4,4.9,14.3,11.4,17.7,19.5c3.4,8.1,5.1,19.5,5.1,34.2V1353.6L276.1,1353.6z M229.8,1328.9v-11.1 c0-7.8-0.4-12.9-1.2-15.2c-0.9-2.3-2.6-3.4-5.2-3.4c-3.2,0-5.2,1-5.9,2.9c-0.8,2-1.2,7.2-1.2,15.7v11.1H229.8z" style="fill: rgb(241, 114, 8);" transform="matrix(1, 0, 0, 1, 0, 0)"/>
  <path class="st0" d="M395.8,1353.6H336v32.8c0,6.9,0.5,11.3,1.5,13.3c1,2,2.9,3,5.7,3c3.5,0,5.9-1.3,7-3.9 c1.2-2.7,1.8-7.7,1.8-15.3v-20h43.8v11.2c0,9.4-0.6,16.6-1.8,21.6c-1.2,5-3.9,10.4-8.3,16.1c-4.4,5.7-9.9,10-16.5,12.8 c-6.6,2.9-15,4.3-25.1,4.3c-9.8,0-18.3-1.4-25.8-4.2c-7.5-2.8-13.3-6.7-17.4-11.6c-4.2-4.9-7.1-10.3-8.7-16.2 c-1.6-5.9-2.4-14.5-2.4-25.8v-44.2c0-13.3,1.8-23.7,5.3-31.4c3.6-7.6,9.5-13.5,17.6-17.6c8.2-4.1,17.5-6.1,28.1-6.1 c13,0,23.6,2.5,32.1,7.4c8.4,4.9,14.3,11.4,17.7,19.5c3.4,8.1,5.1,19.5,5.1,34.2V1353.6L395.8,1353.6z M349.5,1328.9v-11.1 c0-7.8-0.4-12.9-1.2-15.2c-0.9-2.3-2.6-3.4-5.2-3.4c-3.2,0-5.2,1-5.9,2.9c-0.8,2-1.2,7.2-1.2,15.7v11.1H349.5z" style="fill: rgb(241, 114, 8);" transform="matrix(1, 0, 0, 1, 0, 0)"/>
  <path class="st0" d="M515.9,1241.7v185.1h-46.2v-11c-4.4,4.6-9.1,8-14,10.3c-4.9,2.3-10,3.4-15.3,3.4c-7.2,0-13.4-1.9-18.6-5.7 c-5.3-3.7-8.6-8.1-10.1-13.1c-1.5-5-2.2-13-2.2-24.2v-71c0-11.6,0.7-19.9,2.2-24.8c1.5-4.9,4.9-9.2,10.2-12.9 c5.3-3.7,11.7-5.5,19.1-5.5c5.7,0,11,1,15.7,3.1c4.8,2.1,9.1,5.2,13,9.2v-43H515.9L515.9,1241.7z M469.7,1313.2 c0-5.6-0.5-9.3-1.4-11.2c-0.9-1.9-2.8-2.9-5.7-2.9c-2.7,0-4.6,0.9-5.5,2.6c-0.9,1.7-1.4,5.5-1.4,11.5v74.3c0,6.2,0.5,10.2,1.4,12.2 c0.9,2,2.7,2.9,5.2,2.9c3,0,5-1.1,6-3.3c1-2.1,1.5-7.5,1.5-15.9V1313.2z" style="fill: rgb(241, 114, 8);" transform="matrix(1, 0, 0, 1, 0, 0)"/>
  <path class="st0" d="M615,1333.8h-43.3v-10.2c0-11.7,1.4-20.8,4.1-27.1c2.7-6.4,8.2-12,16.3-16.9c8.2-4.9,18.7-7.3,31.8-7.3 c15.6,0,27.4,2.8,35.3,8.3c8,5.5,12.7,12.3,14.3,20.4c1.6,8,2.4,24.6,2.4,49.7v76.1h-44.9v-13.5c-2.8,5.4-6.5,9.5-10.9,12.2 c-4.4,2.7-9.8,4.1-16,4.1c-8.1,0-15.5-2.3-22.2-6.8c-6.7-4.5-10.1-14.5-10.1-29.8v-12.5c0-11.4,1.8-19.1,5.4-23.2 c3.6-4.1,12.4-8.9,26.6-14.4c15.1-6,23.3-9.9,24.3-12c1.1-2.1,1.6-6.2,1.6-12.6c0-7.9-0.6-13.1-1.8-15.5c-1.2-2.4-3.1-3.6-5.9-3.6 c-3.1,0-5.1,1-5.8,3c-0.8,2-1.1,7.3-1.1,15.7V1333.8L615,1333.8z M629.6,1354.6c-7.4,5.4-11.7,9.9-12.9,13.6 c-1.2,3.7-1.8,8.9-1.8,15.8c0,7.8,0.5,12.9,1.5,15.2c1,2.3,3.1,3.4,6.1,3.4c2.9,0,4.8-0.9,5.7-2.7c0.9-1.8,1.3-6.5,1.3-14.1V1354.6 z" style="fill: rgb(241, 114, 8);" transform="matrix(1, 0, 0, 1, 0, 0)"/>
  <path class="st0" d="M793.2,1241.7v123.7c0,18.5-0.2,30.4-0.6,35.7c-0.4,5.3-2.1,10.1-5.2,14.4c-3.1,4.3-7.3,7.2-12.6,8.9 c-5.3,1.6-13.3,2.5-24,2.5h-24.1v-32.3c2.9,0.2,5,0.4,6.3,0.4c3.4,0,6.1-0.9,8.1-2.5c2-1.7,3.1-3.7,3.4-6.2 c0.3-2.4,0.4-7.2,0.4-14.2v-130.2H793.2z" style="fill: rgb(241, 114, 8);" transform="matrix(1, 0, 0, 1, 0, 0)"/>
  <path class="st0" d="M914.9,1328.3v37.1c0,13.6-0.7,23.6-2.1,30c-1.4,6.4-4.3,12.3-8.8,17.8c-4.5,5.5-10.3,9.6-17.3,12.2 c-7.1,2.7-15.2,3.9-24.3,3.9c-10.2,0-18.8-1.1-25.9-3.4c-7.1-2.3-12.6-5.7-16.5-10.2c-3.9-4.5-6.7-10-8.4-16.5 c-1.7-6.4-2.5-16.1-2.5-29v-38.9c0-14.1,1.5-25.1,4.6-33c3-7.9,8.5-14.3,16.5-19.1c7.9-4.8,18.1-7.2,30.4-7.2 c10.4,0,19.3,1.6,26.7,4.6c7.5,3.1,13.2,7.1,17.2,12.1c4.1,5,6.8,10.1,8.3,15.3C914.2,1309.5,914.9,1317.5,914.9,1328.3 L914.9,1328.3z M868.7,1316.9c0-7.8-0.4-12.7-1.2-14.7c-0.9-2-2.7-3-5.4-3c-2.7,0-4.6,1-5.5,3c-0.9,2-1.4,6.9-1.4,14.7v68.4 c0,7.2,0.5,11.9,1.4,14c0.9,2.2,2.7,3.3,5.3,3.3c2.8,0,4.6-1,5.4-3c0.9-2,1.3-6.3,1.3-12.8V1316.9z" style="fill: rgb(241, 114, 8);" transform="matrix(1, 0, 0, 1, 0, 0)"/>
  <path class="st0" d="M976.3,1241.7v43.8c3.8-4.4,8-7.7,12.7-9.9c4.7-2.1,9.8-3.2,15.3-3.2c6.3,0,11.8,1,16.5,3 c4.6,2,8.2,4.8,10.7,8.3c2.4,3.6,3.9,7.1,4.4,10.5c0.5,3.4,0.7,10.7,0.7,21.9v68.4c0,11.1-0.7,19.4-2.2,24.9 c-1.5,5.5-5,10.2-10.5,14.2c-5.5,4-12,6-19.5,6c-5.4,0-10.5-1.2-15.1-3.6c-4.7-2.3-9-5.9-12.8-10.6l-3,11.4h-43.2v-185.1H976.3 L976.3,1241.7z M990.3,1318.1c0-7.8-0.5-13-1.5-15.4c-1-2.4-2.9-3.6-5.9-3.6c-2.8,0-4.6,1.1-5.5,3.2c-0.9,2.1-1.2,7.4-1.2,15.8 v65.4c0,8.2,0.5,13.3,1.4,15.6c1,2.3,2.8,3.4,5.7,3.4c2.9,0,4.8-1.2,5.7-3.6c0.9-2.4,1.3-8,1.3-17.1V1318.1z" style="fill: rgb(241, 114, 8);" transform="matrix(1, 0, 0, 1, 0, 0)"/>
  <path class="st0" d="M1102.5,1241.7l-7.6,139.3h-35.7l-7.5-139.3H1102.5L1102.5,1241.7z M1098.7,1389.7v37h-43.2v-37H1098.7z" style="fill: rgb(241, 114, 8);" transform="matrix(1, 0, 0, 1, 0, 0)"/>
</svg>